<?xml version="1.0" encoding="UTF-8" standalone="no"?>
<svg
   xmlns:dc="http://purl.org/dc/elements/1.1/"
   xmlns:cc="http://creativecommons.org/ns#"
   xmlns:rdf="http://www.w3.org/1999/02/22-rdf-syntax-ns#"
   xmlns:svg="http://www.w3.org/2000/svg"
   xmlns="http://www.w3.org/2000/svg"
   xmlns:sodipodi="http://sodipodi.sourceforge.net/DTD/sodipodi-0.dtd"
   xmlns:inkscape="http://www.inkscape.org/namespaces/inkscape"
   version="1.1"
   x="0px"
   y="0px"
   viewBox="0 0 32 32"
   enable-background="new 0 0 32 32"
   xml:space="preserve"
   id="svg92"
   sodipodi:docname="logo2.svg"
   inkscape:version="1.0.1 (3bc2e813f5, 2020-09-07)"><metadata
     id="metadata98"><rdf:RDF><cc:Work
         rdf:about=""><dc:format>image/svg+xml</dc:format><dc:type
           rdf:resource="http://purl.org/dc/dcmitype/StillImage" /><dc:title /></cc:Work></rdf:RDF></metadata><defs
     id="defs96" /><sodipodi:namedview
     pagecolor="#ffffff"
     bordercolor="#666666"
     borderopacity="1"
     objecttolerance="10"
     gridtolerance="10"
     guidetolerance="10"
     inkscape:pageopacity="0"
     inkscape:pageshadow="2"
     inkscape:window-width="1658"
     inkscape:window-height="873"
     id="namedview94"
     showgrid="false"
     inkscape:zoom="16"
     inkscape:cx="19.497606"
     inkscape:cy="16.353788"
     inkscape:window-x="0"
     inkscape:window-y="0"
     inkscape:window-maximized="0"
     inkscape:current-layer="svg92"
     inkscape:document-rotation="0" /><g
     display="none"
     id="g4"><rect
       x="-27.333"
       y="-102.661"
       display="inline"
       fill="#000000"
       width="473.333"
       height="236"
       id="rect2" /></g><g
     display="none"
     id="g26"><g
       display="inline"
       id="g8"><rect
         x="22.318"
         y="13.214"
         transform="matrix(0.7071 -0.7071 0.7071 0.7071 -9.1591 22.6972)"
         fill="#000000"
         width="1"
         height="18.382"
         id="rect6" /></g><g
       display="inline"
       id="g12"><rect
         x="0.005"
         y="15.5"
         transform="matrix(0.7071 -0.7071 0.7071 0.7071 -6.6272 16.0001)"
         fill="#000000"
         width="31.99"
         height="1"
         id="rect10" /></g><g
       display="inline"
       id="g16"><rect
         x="25.806"
         fill="#000000"
         width="6.194"
         height="6.194"
         id="rect14" /></g><g
       display="inline"
       id="g20"><rect
         x="25.806"
         y="25.806"
         fill="#000000"
         width="6.194"
         height="6.194"
         id="rect18" /></g><g
       display="inline"
       id="g24"><rect
         y="25.806"
         fill="#000000"
         width="6.194"
         height="6.194"
         id="rect22" /></g></g><g
     id="g48"><g
       id="g30"><rect
         x="21.014"
         y="13.754"
         transform="matrix(0.7071 -0.7071 0.7071 0.7071 -8.6193 21.3917)"
         width="1"
         height="14.694"
         id="rect28" /></g><g
       id="g34"><rect
         x="0.922"
         y="15.669"
         transform="matrix(0.7071 -0.7071 0.7071 0.7071 -6.7967 15.9298)"
         width="29.817"
         height="1"
         id="rect32" /></g><g
       id="g38"><path
         d="M31,1v4.194h-4.194V1H31 M32,0h-6.194v6.194H32V0L32,0z"
         id="path36" /></g><g
       id="g42"><path
         d="M31,26.806V31h-4.194v-4.194H31 M32,25.806h-6.194V32H32V25.806L32,25.806z"
         id="path40" /></g><g
       id="g46"><path
         d="M5.194,26.806V31H1v-4.194H5.194 M6.194,25.806H0V32h6.194V25.806L6.194,25.806z"
         id="path44" /></g></g><g
     display="none"
     id="g78"><line
       display="inline"
       fill="#000000"
       stroke="#1A1718"
       stroke-miterlimit="10"
       x1="26.709"
       y1="26.296"
       x2="16.319"
       y2="15.906"
       id="line50" /><line
       display="inline"
       fill="#000000"
       stroke="#1A1718"
       stroke-miterlimit="10"
       x1="5.289"
       y1="26.711"
       x2="26.372"
       y2="5.628"
       id="line52" /><g
       display="inline"
       id="g60"><rect
         x="26.307"
         y="0.5"
         fill="#000000"
         width="5.193"
         height="5.193"
         id="rect54" /><g
         id="g58"><path
           d="M31,1v4.194h-4.194V1H31 M32,0h-6.194v6.194H32V0L32,0z"
           id="path56" /></g></g><g
       display="inline"
       id="g68"><rect
         x="26.307"
         y="26.306"
         fill="#000000"
         width="5.193"
         height="5.194"
         id="rect62" /><g
         id="g66"><path
           d="M31,26.806V31h-4.194v-4.194H31 M32,25.806h-6.194V32H32V25.806L32,25.806z"
           id="path64" /></g></g><g
       display="inline"
       id="g76"><rect
         x="0.5"
         y="26.306"
         fill="#000000"
         width="5.193"
         height="5.194"
         id="rect70" /><g
         id="g74"><path
           d="M5.194,26.806V31H1v-4.194H5.194 M6.194,25.806H0V32h6.194V25.806L6.194,25.806z"
           id="path72" /></g></g></g><g
     display="none"
     id="g90"><line
       display="inline"
       fill="#000000"
       stroke="#1A1718"
       stroke-miterlimit="10"
       x1="26.709"
       y1="26.296"
       x2="16.319"
       y2="15.906"
       id="line80" /><line
       display="inline"
       fill="#000000"
       stroke="#1A1718"
       stroke-miterlimit="10"
       x1="5.289"
       y1="26.711"
       x2="26.372"
       y2="5.628"
       id="line82" /><rect
       x="25.806"
       display="inline"
       fill="#000000"
       width="6.194"
       height="6.194"
       id="rect84" /><rect
       x="25.806"
       y="25.806"
       display="inline"
       fill="#000000"
       width="6.194"
       height="6.194"
       id="rect86" /><rect
       y="25.806"
       display="inline"
       fill="#000000"
       width="6.194"
       height="6.194"
       id="rect88" /></g><path
     style="fill:#ffffff;stroke-width:0.0625"
     d="m 0.02885613,28.916288 v -3.0625 H 2.763303 5.4977499 L 15.669553,15.681841 25.841356,5.5098943 V 2.775591 0.04128768 h 3.0625 3.0625 v 3.06250002 3.0625 h -2.734527 -2.734527 l -4.812199,4.8125033 -4.812199,4.812504 5.030955,5.031246 5.030956,5.031247 h 2.51577 2.515771 v 3.0625 3.0625 h -3.0625 -3.0625 V 29.02551 26.072233 l -4.812503,-4.812198 -4.812504,-4.8122 -5.031246,5.030956 -5.0312469,5.030955 v 2.734521 2.734521 h -3.0625 -3.06249997 z m 5.18749997,0 v -2.125 h -2.125 -2.12499997 v 2.125 2.125 h 2.12499997 2.125 z m 25.8124999,0 v -2.125 h -2.125 -2.125 v 2.125 2.125 h 2.125 2.125 z m 0,-25.8125003 V 0.97878768 h -2.125 -2.125 v 2.12500002 2.125 h 2.125 2.125 z"
     id="path154" /><path
     style="fill:#cccccc;stroke-width:0.0625"
     d="m 1.028856,28.916288 v -2.0625 h 2.0625 2.0625 v 2.0625 2.0625 h -2.0625 -2.0625 z"
     id="path52" /><path
     style="fill:#cccccc;stroke-width:0.0625"
     d="m 26.841356,28.916288 v -2.0625 h 2.0625 2.0625 v 2.0625 2.0625 h -2.0625 -2.0625 z"
     id="path54" /><path
     style="fill:#cccccc;stroke-width:0.0625"
     d="m 26.841356,3.103788 v -2.0625 h 2.0625 2.0625 v 2.0625 2.0625 h -2.0625 -2.0625 z"
     id="path57" /></svg>
