<svg xmlns="http://www.w3.org/2000/svg" xmlns:xlink="http://www.w3.org/1999/xlink" version="1.1" x="0px" y="0px" viewBox="0 0 32 32" enable-background="new 0 0 32 32" xml:space="preserve"><g display="none"><rect x="-27.333" y="-102.661" display="inline" fill="#000000" width="473.333" height="236"></rect></g><g display="none"><g display="inline"><rect x="22.318" y="13.214" transform="matrix(0.7071 -0.7071 0.7071 0.7071 -9.1591 22.6972)" fill="#000000" width="1" height="18.382"></rect></g><g display="inline"><rect x="0.005" y="15.5" transform="matrix(0.7071 -0.7071 0.7071 0.7071 -6.6272 16.0001)" fill="#000000" width="31.99" height="1"></rect></g><g display="inline"><rect x="25.806" fill="#000000" width="6.194" height="6.194"></rect></g><g display="inline"><rect x="25.806" y="25.806" fill="#000000" width="6.194" height="6.194"></rect></g><g display="inline"><rect y="25.806" fill="#000000" width="6.194" height="6.194"></rect></g></g><g><g><rect x="21.014" y="13.754" transform="matrix(0.7071 -0.7071 0.7071 0.7071 -8.6193 21.3917)" width="1" height="14.694"></rect></g><g><rect x="0.922" y="15.669" transform="matrix(0.7071 -0.7071 0.7071 0.7071 -6.7967 15.9298)" width="29.817" height="1"></rect></g><g><path d="M31,1v4.194h-4.194V1H31 M32,0h-6.194v6.194H32V0L32,0z"></path></g><g><path d="M31,26.806V31h-4.194v-4.194H31 M32,25.806h-6.194V32H32V25.806L32,25.806z"></path></g><g><path d="M5.194,26.806V31H1v-4.194H5.194 M6.194,25.806H0V32h6.194V25.806L6.194,25.806z"></path></g></g><g display="none"><line display="inline" fill="#000000" stroke="#1A1718" stroke-miterlimit="10" x1="26.709" y1="26.296" x2="16.319" y2="15.906"></line><line display="inline" fill="#000000" stroke="#1A1718" stroke-miterlimit="10" x1="5.289" y1="26.711" x2="26.372" y2="5.628"></line><g display="inline"><rect x="26.307" y="0.5" fill="#000000" width="5.193" height="5.193"></rect><g><path d="M31,1v4.194h-4.194V1H31 M32,0h-6.194v6.194H32V0L32,0z"></path></g></g><g display="inline"><rect x="26.307" y="26.306" fill="#000000" width="5.193" height="5.194"></rect><g><path d="M31,26.806V31h-4.194v-4.194H31 M32,25.806h-6.194V32H32V25.806L32,25.806z"></path></g></g><g display="inline"><rect x="0.5" y="26.306" fill="#000000" width="5.193" height="5.194"></rect><g><path d="M5.194,26.806V31H1v-4.194H5.194 M6.194,25.806H0V32h6.194V25.806L6.194,25.806z"></path></g></g></g><g display="none"><line display="inline" fill="#000000" stroke="#1A1718" stroke-miterlimit="10" x1="26.709" y1="26.296" x2="16.319" y2="15.906"></line><line display="inline" fill="#000000" stroke="#1A1718" stroke-miterlimit="10" x1="5.289" y1="26.711" x2="26.372" y2="5.628"></line><rect x="25.806" display="inline" fill="#000000" width="6.194" height="6.194"></rect><rect x="25.806" y="25.806" display="inline" fill="#000000" width="6.194" height="6.194"></rect><rect y="25.806" display="inline" fill="#000000" width="6.194" height="6.194"></rect></g></svg>